<svg xmlns="http://www.w3.org/2000/svg" viewBox="0 0 387 90">
  <path d="M283.6 14.4c17 0 30.8 13.8 30.8 30.8S300.6 76 283.6 76s-30.8-13.8-30.8-30.8c.1-17 13.9-30.8 30.8-30.8m0-14.4c-24.9 0-45.2 20.2-45.2 45.2 0 24.9 20.2 45.2 45.2 45.2s45.2-20.2 45.2-45.2c0-25-20.2-45.2-45.2-45.2zM184.8 14.4c17 0 30.8 13.8 30.8 30.8S201.8 76 184.8 76 154 62.1 154 45.2c0-17 13.8-30.8 30.8-30.8m0-14.4c-24.9 0-45.2 20.2-45.2 45.2 0 24.9 20.2 45.2 45.2 45.2S230 70.2 230 45.2c-.1-25-20.3-45.2-45.2-45.2zM67.1 66.7c-5.6 5.7-13.3 9.2-21.9 9.2-17 0-30.8-13.8-30.8-30.8s13.8-30.8 30.8-30.8c8.6 0 16.3 3.5 21.9 9.2l10.3-10.1C69.2 5.2 57.8 0 45.2 0 20.2 0 0 20.2 0 45.2c0 24.9 20.2 45.2 45.2 45.2 12.6 0 24-5.2 32.2-13.5L67.1 66.7zM124.3 0L85.2 22.6l7.2 12.5 17.5-10.2v65.4h14.4M365.5 8.4c7.1 0 12.9 5.8 12.9 12.9s-5.8 12.9-12.9 12.9c-7.1 0-12.9-5.8-12.9-12.9s5.7-12.9 12.9-12.9m0-8.4c-11.8 0-21.4 9.6-21.4 21.4s9.6 21.4 21.4 21.4 21.4-9.6 21.4-21.4S377.2 0 365.5 0zM344.1 51.1h42.7v8.4h-42.7z"/>
</svg>
