<svg xmlns="http://www.w3.org/2000/svg" viewBox="0 0 288 288">
  <path d="M237.6 14.4H50.4c-19.9 0-36 16.1-36 36v187.2c0 19.9 16.1 36 36 36h187.2c19.9 0 36-16.1 36-36V50.4c0-19.9-16.1-36-36-36zm-93.2 78.8c27.8 0 50.4 22.6 50.4 50.4S172.2 194 144.4 194 94 171.4 94 143.6s22.6-50.4 50.4-50.4zm101.3 143.9c0 4-3.7 8.6-7.6 8.6H50.8c-4 0-8.5-4.6-8.5-8.6V121.5h25.9c-2 6.3-3 14.3-3 21.8 0 43.7 35.5 79.3 79.2 79.3s79.2-35.6 79.2-79.4c0-7.5-1.1-15.5-3-21.8h25v115.7zM243 84.6c0 4-3.2 7.2-7.2 7.2h-35.1c-4 0-7.2-3.2-7.2-7.2V49.5c0-4 3.2-7.2 7.2-7.2h35.1c4 0 7.2 3.2 7.2 7.2v35.1z"/>
</svg>
