<svg xmlns="http://www.w3.org/2000/svg" viewBox="0 0 288 288">
  <path d="M289.2 53.9c-10.7 4.7-22.2 7.9-34.2 9.4 12.3-7.4 21.8-19.1 26.2-33-11.5 6.8-24.3 11.8-37.8 14.5C232.5 33.2 217 26 199.9 26c-32.9 0-59.6 26.7-59.6 59.6 0 4.7.5 9.2 1.5 13.6C92.3 96.7 48.4 72.9 19 36.9c-5.1 8.8-8.1 19-8.1 30 0 20.7 10.5 38.9 26.5 49.6-9.8-.3-19-3-27-7.5v.7c0 28.9 20.5 53 47.8 58.4-5 1.4-10.3 2.1-15.7 2.1-3.8 0-7.6-.4-11.2-1.1 7.6 23.7 29.6 40.9 55.7 41.4-20.4 16-46.1 25.5-74 25.5-4.8 0-9.6-.3-14.2-.8 26.4 17 57.7 26.8 91.3 26.8 109.6 0 169.5-90.8 169.5-169.5 0-2.6-.1-5.2-.2-7.7 11.7-8.4 21.8-18.9 29.8-30.9z"/>
</svg>
